<?xml version="1.0" encoding="UTF-8"?>
<svg id="Layer_2" data-name="Layer 2" xmlns="http://www.w3.org/2000/svg" xmlns:xlink="http://www.w3.org/1999/xlink" viewBox="0 0 563.39 488">
  <defs>
    <style>
      .cls-1 {
        fill: none;
      }

      .cls-2 {
        stroke: #716f6f;
        stroke-miterlimit: 10;
        stroke-width: 1.5px;
      }

      .cls-2, .cls-3 {
        fill: #716f6f;
      }

      .cls-4 {
        clip-path: url(#clippath);
      }
    </style>
    <clipPath id="clippath">
      <rect class="cls-1" x="393.48" y="412.65" width="20.66" height="22.62"/>
    </clipPath>
  </defs>
  <g id="Ebene_1" data-name="Ebene 1">
    <g>
      <path class="cls-3" d="M295.18,195.26c9.9,15.52,3.75,45.78,3.9,45.78,0,0,0-.02.01-.02.08.02-4.52,14.68,2.95,7.82,32.28-48.18-8.77-104.6-74.01-81.65,27.24-42.61,3.17-4.97,65.23-99.18C353.62-23.61,345.39-.43,279.12,12.28,168.72,38.4-101.21,105.76,39.91,122.14-8.97,88.46,144.78,61.71,300.64,21.32l-99.51,153.68c-2.3,1.22-.15.27-2.3,1.22C-102.05,309.16,1.79,686.08,270.7,356.04c11.54-17.39,19.96-1.33,20.58.08,21.13,42.49,86.47,44.36,126.07,12.79,25.89-14.89,11.54-9.2,38.2,5.85,46.7,18.95,95.82-3.51,107.83-30.64-35.94,12.94-86.15,38.36-114.46,7.02-18.48-25.03-.08-21.52-26.51-4.05-54.11,47.17-128.1,30.49-130.36-41.79l-1.35-19.41c-.22-3.16-.9-8.28-1.37-11.41-.91-6.04-1.59-22.42-13.23-28.92-2.85-1.59-6.71-.15-7.31,3.06-.65,3.47,1.03,8.18,1.67,11.69,2.9,15.84,5.57,58.52-13.18,77.34-2.34,2.35-9.15,5.27-22.75,11.1-33.96,14.55-56.32,14.99-63.51,15.05-9.42.08-20.79-.02-25.25-4.29-1.42-1.36-5.43-6.31,8.77-44.46,3.29-8.82,7.68-19.78,16.15-38.43,3.92-8.62,8.21-18.04,14.69-31.14,17.9-36.13,29.54-55.9,42.99-61.46,19.94-8.25,56.08-5.55,66.8,11.25ZM213.16,396.12c-16.59,13.51-111.7,93.9-153.28,65.17-19.3-13.34-25.6-42.21-25.1-57.15,3.63-109.7,123.85-185.27,151.65-201.94-12.11,22.79-27.89,53.7-45.11,91.11-22.3,48.44-25.46,60.94-19.41,70.98,12.57,20.88,58.13,19.85,87.45,11.09,23.64-7.06,39.29-19.9,41.07-17.53,2.14,2.85-18.71,23.17-37.27,38.28Z"/>
      <path class="cls-2" d="M298.37,425.51c0,1.85-.3,3.48-.91,4.9-.61,1.42-1.48,2.52-2.61,3.3-1.13.78-2.43,1.16-3.9,1.16-2.22,0-4.02-.85-5.39-2.56-1.37-1.71-2.06-4.01-2.06-6.91v-3.08c0-1.84.3-3.47.91-4.89.61-1.43,1.48-2.53,2.61-3.3,1.13-.78,2.43-1.16,3.89-1.16s2.77.39,3.91,1.16c1.13.78,2.01,1.88,2.62,3.31.61,1.43.92,3.06.92,4.89v3.19ZM297.64,422.29c0-2.58-.61-4.65-1.81-6.2-1.21-1.56-2.84-2.34-4.9-2.34s-3.65.77-4.86,2.32-1.81,3.65-1.81,6.32v3.12c0,1.7.27,3.2.82,4.5.55,1.3,1.33,2.31,2.34,3.01,1.01.7,2.19,1.05,3.55,1.05,2.06,0,3.69-.78,4.89-2.33,1.2-1.55,1.8-3.67,1.8-6.36v-3.11ZM287.11,408.78c0-.22.07-.42.22-.58.14-.16.32-.24.53-.24s.39.08.54.24c.15.16.22.35.22.58s-.07.42-.22.57c-.15.16-.33.23-.54.23s-.38-.08-.53-.23c-.14-.16-.22-.35-.22-.57ZM293.14,408.78c0-.22.07-.42.22-.58.14-.16.32-.24.53-.24s.39.08.54.24c.15.16.22.35.22.58s-.07.42-.22.57c-.15.16-.33.23-.54.23s-.38-.08-.53-.23-.22-.35-.22-.57Z"/>
      <path class="cls-2" d="M310.77,433.79h13.03v.79h-14.03v-.64l12.58-19.89h-12.04v-.79h13.06v.57l-12.6,19.97Z"/>
      <path class="cls-2" d="M346.72,424h-9.89v9.79h11.27v.79h-12v-21.33h12v.79h-11.27v9.17h9.89v.79Z"/>
      <path class="cls-2" d="M367.72,425.45h-6.84v9.13h-.73v-21.33h6.29c1.98,0,3.55.55,4.72,1.66s1.75,2.6,1.75,4.5c0,1.46-.42,2.73-1.25,3.82s-1.9,1.76-3.19,2.03l5.27,9.13v.21h-.77l-5.24-9.13ZM360.88,424.66h6.22c1.52,0,2.74-.5,3.68-1.49s1.4-2.25,1.4-3.76c0-1.66-.52-2.97-1.55-3.93s-2.45-1.44-4.25-1.44h-5.5v10.62Z"/>
      <path class="cls-2" d="M437.43,424h-9.89v9.79h11.27v.79h-12v-21.33h12v.79h-11.27v9.17h9.89v.79Z"/>
      <path class="cls-2" d="M450.93,434.58v-21.33h5.46c1.53,0,2.91.39,4.14,1.17s2.21,1.88,2.91,3.29,1.07,2.99,1.08,4.74v2.77c0,1.78-.34,3.38-1.04,4.8-.69,1.43-1.65,2.54-2.89,3.34-1.24.8-2.62,1.21-4.14,1.22h-5.53ZM451.66,414.04v19.75h4.73c1.38,0,2.64-.36,3.77-1.09,1.13-.73,2.02-1.74,2.66-3.05.64-1.3.97-2.75.98-4.34v-2.74c0-1.59-.31-3.04-.94-4.34-.63-1.3-1.5-2.32-2.63-3.05-1.12-.74-2.37-1.12-3.73-1.13h-4.83Z"/>
      <path class="cls-2" d="M478.67,434.58h-.73v-21.33h.73v21.33Z"/>
      <path class="cls-2" d="M503.34,428.21h-9.66l-2.19,6.37h-.8l7.38-21.33h.89l7.38,21.33h-.8l-2.21-6.37ZM493.95,427.42h9.12l-4.55-13.21-4.56,13.21Z"/>
      <g class="cls-4">
        <path class="cls-2" d="M395.75,413.25l8.11,20.17,8.14-20.17h1.07v21.33h-.73v-20.16l-8.18,20.16h-.58l-8.14-20.05v20.05h-.73v-21.33h1.04Z"/>
      </g>
    </g>
  </g>
</svg>